<svg width="65" height="65" viewBox="0 0 65 65" fill="none" xmlns="http://www.w3.org/2000/svg">
<path d="M15.7151 4.50002C15.6321 4.49926 15.5503 4.51914 15.4769 4.55789C15.4036 4.59663 15.341 4.65302 15.2949 4.72196C15.2488 4.7909 15.2205 4.87024 15.2127 4.95282C15.2049 5.03541 15.2177 5.11864 15.2501 5.19502L15.5376 5.87377L20.6251 17.7363C20.6596 17.817 20.7148 17.8871 20.7851 17.9397C20.8554 17.9923 20.9383 18.0254 21.0255 18.0358C21.1126 18.0462 21.201 18.0335 21.2817 17.9989C21.3623 17.9643 21.4325 17.9091 21.4851 17.8388L30.875 5.30002C30.9308 5.22574 30.9647 5.1374 30.973 5.04492C30.9814 4.95244 30.9638 4.85947 30.9223 4.77641C30.8807 4.69336 30.8169 4.62351 30.7379 4.5747C30.6589 4.52588 30.5679 4.50002 30.4751 4.50002H15.7151Z" fill="#FACC15"/>
<path d="M52.9913 7.75747L47.8313 19.8037C47.7988 19.8798 47.7857 19.9627 47.7932 20.045C47.8006 20.1274 47.8284 20.2066 47.874 20.2756C47.9195 20.3446 47.9815 20.4012 48.0543 20.4403C48.1272 20.4795 48.2086 20.5 48.2913 20.5H60.9163C61.0054 20.5 61.0929 20.4762 61.1698 20.4311C61.2467 20.3859 61.31 20.321 61.3534 20.2431C61.3967 20.1652 61.4185 20.0771 61.4163 19.988C61.4142 19.8989 61.3883 19.812 61.3413 19.7362L53.875 7.69122C53.8268 7.61367 53.7582 7.55082 53.6768 7.50948C53.5953 7.46814 53.5041 7.44989 53.4131 7.45672C53.322 7.46355 53.2345 7.49519 53.1602 7.54821C53.0858 7.60123 53.0274 7.6736 52.9913 7.75747Z" fill="#FACC15"/>
<path d="M11.125 7.69628L3.66128 19.7363C3.61426 19.812 3.58834 19.8989 3.5862 19.9881C3.58407 20.0772 3.6058 20.1653 3.64915 20.2432C3.6925 20.3211 3.75588 20.3859 3.83274 20.4311C3.9096 20.4763 3.99714 20.5001 4.08628 20.5H16.7113C16.794 20.4999 16.8754 20.4793 16.9483 20.44C17.0211 20.4007 17.083 20.3439 17.1284 20.2748C17.1739 20.2057 17.2015 20.1263 17.2088 20.0439C17.216 19.9615 17.2027 19.8785 17.17 19.8025L12 7.76253C11.9631 7.68074 11.9047 7.61042 11.8312 7.55894C11.7577 7.50745 11.6717 7.47671 11.5822 7.46993C11.4927 7.46316 11.403 7.4806 11.3226 7.52042C11.2421 7.56025 11.1739 7.62099 11.125 7.69628V7.69628Z" fill="#FACC15"/>
<path d="M49.6587 4.50001H33.9775C33.9322 4.49971 33.8878 4.51209 33.8492 4.53572C33.8106 4.55936 33.7794 4.59333 33.7591 4.63377C33.7389 4.67422 33.7303 4.71953 33.7344 4.76459C33.7385 4.80965 33.7552 4.85266 33.7825 4.88876L43.7725 18.1963C43.798 18.2304 43.832 18.2573 43.8712 18.2741C43.9104 18.2909 43.9533 18.2971 43.9957 18.292C44.038 18.287 44.0783 18.2708 44.1124 18.2452C44.1465 18.2196 44.1733 18.1855 44.19 18.1463L49.45 5.87501L49.875 4.83251C49.8899 4.79672 49.896 4.75784 49.8927 4.71919C49.8893 4.68055 49.8767 4.64328 49.8558 4.6106C49.8349 4.57791 49.8064 4.55078 49.7727 4.53151C49.7391 4.51225 49.7012 4.50144 49.6625 4.50001H49.6587Z" fill="#FACC15"/>
<path d="M30.375 56.5L19.1963 24.8138C19.1635 24.7217 19.1029 24.6422 19.023 24.586C18.9431 24.5298 18.8477 24.4998 18.75 24.5H3.71254C3.62543 24.4998 3.54001 24.524 3.46599 24.5699C3.39198 24.6159 3.33236 24.6817 3.29393 24.7598C3.25549 24.838 3.23979 24.9254 3.2486 25.0121C3.25742 25.0987 3.2904 25.1812 3.34379 25.25L30.3438 60.2263C30.4352 60.3446 30.5656 60.4268 30.7118 60.4581C30.858 60.4895 31.0106 60.468 31.1425 60.3975V60.3975C31.2752 60.3277 31.3784 60.2126 31.4332 60.073C31.488 59.9335 31.4909 59.779 31.4413 59.6375L30.375 56.5Z" fill="#FACC15"/>
<path d="M61.2875 24.5H46.25C46.1529 24.5 46.0581 24.5302 45.9788 24.5864C45.8995 24.6426 45.8397 24.722 45.8075 24.8138L33.5325 59.5837C33.481 59.7297 33.4831 59.8893 33.5385 60.0338C33.594 60.1784 33.6991 60.2984 33.835 60.3725C33.971 60.4461 34.1287 60.4691 34.28 60.4373C34.4314 60.4055 34.5665 60.3209 34.6613 60.1987L61.6563 25.25C61.7097 25.1812 61.7427 25.0987 61.7515 25.0121C61.7603 24.9254 61.7446 24.838 61.7062 24.7598C61.6677 24.6817 61.6081 24.6159 61.5341 24.5699C61.4601 24.524 61.3746 24.4998 61.2875 24.5V24.5Z" fill="#FACC15"/>
<path d="M32.9 10.3663L39.9 19.7C39.9557 19.7743 39.9896 19.8626 39.998 19.9551C40.0063 20.0476 39.9887 20.1406 39.9472 20.2236C39.9057 20.3067 39.8419 20.3765 39.7629 20.4253C39.6839 20.4742 39.5929 20.5 39.5 20.5H25.5C25.4072 20.5 25.3161 20.4742 25.2371 20.4253C25.1582 20.3765 25.0943 20.3067 25.0528 20.2236C25.0113 20.1406 24.9937 20.0476 25.002 19.9551C25.0104 19.8626 25.0443 19.7743 25.1 19.7L32.1 10.3663C32.1466 10.3042 32.207 10.2538 32.2764 10.219C32.3458 10.1843 32.4224 10.1663 32.5 10.1663C32.5776 10.1663 32.6542 10.1843 32.7236 10.219C32.793 10.2538 32.8534 10.3042 32.9 10.3663ZM32.025 49.155L23.5625 25.1663C23.5359 25.0909 23.5278 25.0102 23.5388 24.9311C23.5499 24.8519 23.5797 24.7765 23.6258 24.7113C23.672 24.646 23.7331 24.5928 23.8041 24.556C23.8751 24.5193 23.9538 24.5001 24.0338 24.5H40.9663C41.0462 24.5001 41.1249 24.5193 41.1959 24.556C41.2669 24.5928 41.328 24.646 41.3742 24.7113C41.4203 24.7765 41.4502 24.8519 41.4612 24.9311C41.4722 25.0102 41.4641 25.0909 41.4375 25.1663L32.9713 49.155C32.9367 49.2524 32.8729 49.3367 32.7885 49.3963C32.7041 49.4559 32.6033 49.4879 32.5 49.4879C32.3967 49.4879 32.2959 49.4559 32.2115 49.3963C32.1271 49.3367 32.0633 49.2524 32.0288 49.155H32.025Z" fill="#FB923C"/>
</svg>
