<svg width="65" height="65" viewBox="0 0 65 65" fill="none" xmlns="http://www.w3.org/2000/svg">
<path d="M32.5 6.5C18.1638 6.5 6.5 18.1638 6.5 32.5C6.5 46.8363 18.1638 58.5 32.5 58.5C46.8363 58.5 58.5 46.8363 58.5 32.5C58.5 18.1638 46.8363 6.5 32.5 6.5ZM41.8363 38.1025C40.7738 39.3975 36.875 42.9125 32.5 46.0413C28.125 42.9163 24.2263 39.3975 23.1638 38.1025C20.6638 35.0563 19.4662 31.9275 19.5012 28.54C19.54 24.6575 22.6538 21.4988 26.4425 21.4988C29.1925 21.4988 31.105 23.05 32.2163 24.3438L32.5 24.6875L32.7837 24.3438C33.875 23.0363 35.8025 21.5 38.5575 21.5C42.3463 21.5 45.46 24.6588 45.4987 28.5413C45.5337 31.9275 44.335 35.0563 41.8363 38.1025Z" fill="#FACC15"/>
<path d="M26.4429 19.9988C29.1456 19.9989 31.1553 21.2294 32.4927 22.4714C33.8339 21.2145 35.8565 19.9999 38.5571 19.9998C43.2024 19.9998 46.9518 23.8556 46.9985 28.5261V28.8806C46.952 32.5367 45.5953 35.8841 42.9956 39.0535V39.0544C41.8068 40.5032 37.781 44.1088 33.3726 47.2615L32.5005 47.8845L31.6284 47.2615C27.4939 44.3082 23.6967 40.9517 22.2593 39.3503L22.0044 39.0544C19.3191 35.7824 17.9622 32.3199 18.0015 28.5242C18.0485 23.8539 21.7978 19.9988 26.4429 19.9988Z" fill="#FB923C" stroke="#0F172A" stroke-width="3"/>
</svg>
