<svg width="21" height="23" viewBox="0 0 21 23" fill="none" xmlns="http://www.w3.org/2000/svg">
<path d="M21.0001 5.32468L18.5001 5.32468C18.3031 5.32468 18.108 5.36349 17.926 5.43886C17.7441 5.51424 17.5787 5.62471 17.4393 5.76398C17.3001 5.90336 17.1896 6.06873 17.1142 6.25063C17.0388 6.43265 17 6.62772 17 6.8247L17 12.3247C16.5 14.3243 16.4065 14.9182 15 16.3247C13.5935 17.7312 12.4892 18.8247 10.5 18.8247C9.51511 18.8247 8.90995 18.7016 8 18.3247C7.09004 17.9478 6.19645 17.0212 5.5 16.3247C4.80356 15.6283 4.87691 15.7347 4.5 14.8247C4.12309 13.9148 4.00003 13.3096 4.00004 12.3247L4.00004 6.82515C4.0001 6.62817 3.96134 6.43299 3.88599 6.25097C3.81063 6.06895 3.70015 5.90347 3.56086 5.7642C3.42155 5.62482 3.25617 5.51435 3.07415 5.43886C2.89214 5.36349 2.69705 5.32468 2.50002 5.32468L-7.43095e-07 5.32468L-4.15255e-07 11.8248C-3.55061e-07 13.2037 0.271592 14.569 0.799269 15.843C1.32695 17.1169 2.10038 18.2744 3.07539 19.2494C4.05042 20.2244 5.20793 20.9978 6.48186 21.5255C7.75578 22.0531 9.12116 22.3247 10.5 22.3247C13.2848 22.3247 15.9555 21.2185 17.9247 19.2494C19.8938 17.2802 21.0001 14.6095 21.0001 11.8248L21.0001 5.32468Z" fill="#EA580C"/>
<circle cx="4.5" cy="4.76221" r="4.5" fill="white"/>
</svg>
