<svg width="65" height="65" viewBox="0 0 65 65" fill="none" xmlns="http://www.w3.org/2000/svg">
<path d="M32.5 46.4999C32.1519 46.4999 31.8097 46.409 31.5075 46.2362L14 36.2299C13.8479 36.1421 13.6753 36.0959 13.4996 36.0959C13.324 36.096 13.1514 36.1424 12.9994 36.2303C12.8473 36.3182 12.7211 36.4447 12.6334 36.5969C12.5458 36.7491 12.4997 36.9218 12.5 37.0974V46.4999C12.4997 46.8569 12.5949 47.2074 12.7758 47.5151C12.9567 47.8229 13.2167 48.0766 13.5288 48.2499L31.5288 58.2499C31.8259 58.415 32.1601 58.5016 32.5 58.5016C32.8399 58.5016 33.1741 58.415 33.4713 58.2499L51.4712 48.2499C51.7833 48.0766 52.0433 47.8229 52.2242 47.5151C52.4051 47.2074 52.5003 46.8569 52.5 46.4999V37.0974C52.5003 36.9218 52.4542 36.7491 52.3666 36.5969C52.2789 36.4447 52.1527 36.3182 52.0006 36.2303C51.8486 36.1424 51.676 36.096 51.5004 36.0959C51.3247 36.0959 51.1521 36.1421 51 36.2299L33.4925 46.2362C33.1903 46.409 32.8482 46.4999 32.5 46.4999Z" fill="#FACC15"/>
<path d="M62.49 24.3124C62.49 24.3124 62.49 24.3024 62.49 24.2986C62.4577 23.9816 62.35 23.6769 62.1761 23.4099C62.0021 23.1429 61.7669 22.9213 61.49 22.7636L33.49 6.76364C33.1877 6.59088 32.8456 6.5 32.4975 6.5C32.1493 6.5 31.8072 6.59088 31.505 6.76364L3.50499 22.7636C3.19897 22.9386 2.94464 23.1913 2.76774 23.4962C2.59085 23.8011 2.49768 24.1474 2.49768 24.4999C2.49768 24.8524 2.59085 25.1986 2.76774 25.5035C2.94464 25.8084 3.19897 26.0612 3.50499 26.2361L31.505 42.2361C31.8072 42.4089 32.1493 42.4998 32.4975 42.4998C32.8456 42.4998 33.1877 42.4089 33.49 42.2361L58.125 28.1599C58.1631 28.1379 58.2063 28.1264 58.2502 28.1264C58.2942 28.1264 58.3374 28.1381 58.3754 28.1601C58.4135 28.1822 58.445 28.2139 58.4669 28.252C58.4887 28.2902 58.5002 28.3334 58.5 28.3774V46.4436C58.5 47.5199 59.3275 48.4436 60.4037 48.4974C60.6742 48.5104 60.9444 48.4684 61.1981 48.3739C61.4518 48.2794 61.6837 48.1344 61.8797 47.9476C62.0757 47.7608 62.2317 47.5362 62.3383 47.2874C62.445 47.0385 62.5 46.7706 62.5 46.4999V24.4999C62.4998 24.4373 62.4965 24.3747 62.49 24.3124V24.3124Z" fill="#FB923C"/>
</svg>
